<?xml version="1.0" standalone="no"?>
<!DOCTYPE svg PUBLIC "-//W3C//DTD SVG 20010904//EN"
 "http://www.w3.org/TR/2001/REC-SVG-20010904/DTD/svg10.dtd">
<svg version="1.0" xmlns="http://www.w3.org/2000/svg"
 width="53px" height="38px" viewBox="0 0 258.000000 185.000000"
 preserveAspectRatio="xMidYMid meet">

<g transform="translate(0.000000,185.000000) scale(0.100000,-0.100000)"
fill="#717171" stroke="none">
<path d="M1100 1832 c-23 -11 -42 -32 -55 -59 -11 -23 -25 -42 -32 -43 -7 0
-49 -12 -95 -26 -307 -97 -566 -317 -708 -601 -85 -171 -110 -283 -117 -530
-5 -169 -8 -193 -22 -193 -64 -2 -97 -128 -48 -185 18 -22 50 -34 172 -66 335
-87 652 -123 1095 -123 443 0 760 36 1095 123 122 32 154 44 172 66 49 57 16
183 -48 185 -14 0 -17 24 -22 193 -7 247 -32 359 -117 530 -142 284 -401 504
-708 601 -46 14 -88 26 -95 26 -7 1 -21 20 -32 43 -32 68 -62 77 -245 77 -128
0 -161 -3 -190 -18z m354 -78 c9 -8 16 -23 16 -32 0 -9 -9 -260 -20 -556 -13
-356 -24 -544 -31 -552 -16 -20 -242 -20 -258 0 -7 8 -18 196 -31 552 -11 296
-20 547 -20 556 0 42 24 48 180 48 122 0 151 -3 164 -16z m-420 -166 c3 -35
12 -266 21 -514 8 -249 19 -463 24 -475 5 -13 21 -35 36 -49 26 -24 31 -25
175 -25 144 0 149 1 175 25 15 14 31 35 36 48 5 13 16 226 24 475 18 528 22
577 40 577 18 0 156 -47 166 -57 4 -4 -12 -143 -37 -308 -24 -165 -43 -316
-42 -335 3 -30 7 -35 30 -38 21 -3 30 2 37 20 5 13 29 157 52 321 27 185 47
297 54 297 25 0 175 -110 254 -185 138 -132 250 -323 295 -500 26 -101 36
-194 36 -342 l0 -142 -152 -3 -153 -3 -3 -24 c-7 -46 16 -51 215 -51 l183 0 0
-30 c0 -33 -7 -36 -210 -85 -309 -73 -574 -100 -1000 -100 -426 0 -691 27
-1000 100 -203 49 -210 52 -210 85 l0 30 806 0 c536 0 812 3 825 10 21 12 25
40 7 58 -9 9 -196 12 -780 12 l-768 0 0 143 c0 148 10 241 36 342 45 177 157
368 295 500 79 75 229 185 254 185 7 0 27 -112 54 -297 23 -164 47 -308 52
-321 7 -18 16 -23 37 -20 23 3 27 8 30 38 1 19 -18 170 -42 335 -25 165 -41
304 -37 308 10 10 141 56 163 56 13 1 18 -12 22 -61z"/>
</g>
</svg>
