<?xml version="1.0" standalone="no"?>
<!DOCTYPE svg PUBLIC "-//W3C//DTD SVG 20010904//EN"
 "http://www.w3.org/TR/2001/REC-SVG-20010904/DTD/svg10.dtd">
<svg version="1.0" xmlns="http://www.w3.org/2000/svg"
 width="42px" height="38px" viewBox="0 0 376.000000 344.000000"
 preserveAspectRatio="xMidYMid meet">

<g transform="translate(0.000000,344.000000) scale(0.100000,-0.100000)"
fill="#666666" stroke="none">
<path d="M645 3433 c-81 -18 -159 -73 -190 -134 -45 -86 -37 -185 21 -269 19
-27 34 -52 34 -55 0 -3 -110 -5 -245 -5 -231 0 -245 -1 -255 -19 -6 -13 -10
-141 -10 -350 0 -286 2 -332 16 -345 13 -14 54 -16 291 -16 l275 0 -5 -22
c-48 -196 -477 -2145 -477 -2168 0 -24 6 -33 26 -40 33 -13 405 -13 437 -1 14
6 28 19 32 31 4 11 64 280 135 598 110 493 132 579 150 594 21 17 76 18 1024
16 l1001 -3 131 -585 c71 -322 133 -597 137 -611 4 -14 18 -31 32 -37 32 -15
402 -16 439 -2 20 7 26 16 26 41 0 17 -105 499 -234 1072 -129 573 -237 1059
-241 1080 l-7 37 270 0 c235 0 273 2 287 16 14 14 15 55 13 355 -3 289 -5 341
-18 349 -8 5 -121 10 -253 10 -131 0 -237 3 -235 8 2 4 18 38 37 75 77 153 37
282 -112 359 -61 31 -166 31 -227 -1 -94 -49 -139 -116 -148 -217 -4 -52 -1
-70 21 -115 15 -30 34 -64 43 -76 l16 -23 -1001 0 c-550 0 -1001 2 -1001 5 0
2 13 25 29 50 58 92 64 190 15 273 -53 89 -181 147 -279 125z m128 -99 c74
-38 112 -101 105 -175 -16 -159 -237 -217 -330 -87 -33 47 -33 159 -1 204 47
65 156 93 226 58z m2370 2 c116 -50 143 -202 51 -288 -114 -106 -306 -26 -306
127 0 123 139 211 255 161z m-1965 -446 c-9 -25 -526 -544 -555 -556 -37 -16
-473 -21 -473 -6 0 16 520 547 548 559 34 15 485 18 480 3z m612 4 c0 -16
-529 -548 -557 -560 -24 -11 -90 -14 -259 -14 l-227 0 59 63 c32 34 154 160
271 281 163 168 219 220 245 226 39 9 468 13 468 4z m610 -1 c0 -5 -125 -135
-278 -291 l-277 -283 -244 1 -243 0 190 198 c340 352 360 370 412 375 87 7
440 7 440 0z m1220 -1 c0 -4 -125 -135 -277 -290 l-278 -283 -238 1 c-148 0
-237 4 -235 10 2 5 123 133 271 284 224 230 273 275 300 279 61 7 457 7 457
-1z m-3085 -34 c-30 -36 -436 -448 -442 -448 -6 0 -3 467 4 473 3 4 109 7 236
7 l229 0 -27 -32z m3135 -293 l0 -245 -236 0 c-151 0 -234 4 -232 10 3 11 457
480 464 480 2 0 4 -110 4 -245z m-2680 -343 c0 -16 -454 -2074 -466 -2114 -5
-16 -22 -18 -171 -18 l-165 0 5 23 c3 12 110 496 238 1075 l233 1052 163 0
c149 0 163 -1 163 -18z m1693 11 c9 -15 199 -894 195 -899 -3 -2 -452 -3
-1000 -2 l-995 3 99 440 c54 242 100 446 103 453 3 9 172 12 799 12 437 0 797
-3 799 -7z m421 -10 c3 -10 109 -486 236 -1058 127 -572 233 -1048 236 -1057
5 -17 -7 -18 -163 -18 l-168 0 -234 1058 c-129 581 -237 1065 -239 1075 -4 16
9 17 161 17 149 0 166 -2 171 -17z"/>
</g>
</svg>
