<?xml version="1.0" standalone="no"?>
<!DOCTYPE svg PUBLIC "-//W3C//DTD SVG 20010904//EN"
 "http://www.w3.org/TR/2001/REC-SVG-20010904/DTD/svg10.dtd">
<svg version="1.0" xmlns="http://www.w3.org/2000/svg"
 width="41px" height="38px" viewBox="0 0 353.000000 325.000000"
 preserveAspectRatio="xMidYMid meet">

<g transform="translate(0.000000,325.000000) scale(0.100000,-0.100000)"
fill="#666666" stroke="none">
<path d="M960 3245 c-8 -2 -48 -9 -89 -15 -139 -23 -308 -89 -371 -146 -69
-63 -63 -69 152 -145 222 -79 301 -115 382 -174 123 -89 176 -158 160 -208 -9
-27 -157 -272 -247 -407 -39 -58 -109 -152 -156 -210 -47 -57 -98 -120 -112
-140 -61 -84 -679 -1135 -679 -1155 0 -20 26 -37 234 -154 116 -65 207 -111
219 -109 21 3 102 135 455 743 186 321 238 420 303 580 88 217 305 625 355
666 24 20 88 15 156 -10 57 -22 121 -76 195 -164 27 -33 35 -37 51 -28 31 16
317 510 317 546 0 28 -3 30 -50 38 -134 21 -173 38 -462 203 -347 199 -425
238 -528 264 -72 18 -249 34 -285 25z m278 -95 c97 -27 140 -49 455 -229 l268
-153 -22 -37 c-12 -20 -57 -98 -101 -173 l-80 -136 -42 14 c-87 32 -181 14
-224 -41 l-20 -25 -111 63 c-81 45 -109 66 -105 77 29 78 5 149 -80 234 -107
107 -251 185 -488 263 -59 19 -105 39 -102 44 18 30 216 101 329 119 87 13
239 4 323 -20z m955 -472 c3 -9 -225 -398 -233 -398 -3 0 -33 28 -68 63 l-62
62 39 65 c21 36 64 108 95 161 l56 97 86 -22 c47 -12 86 -24 87 -28z m-867
-305 c57 -32 104 -62 104 -67 0 -5 -34 -67 -76 -138 -90 -153 -148 -274 -199
-418 -21 -58 -58 -145 -83 -195 -33 -68 -579 -1005 -630 -1083 -7 -10 -49 9
-181 84 -94 53 -171 101 -171 106 0 8 475 825 568 978 63 103 143 211 222 300
90 101 133 161 225 315 101 170 104 175 112 175 3 0 53 -26 109 -57z"/>
<path d="M2926 1873 c-312 -2 -412 -6 -418 -16 -4 -6 -8 -128 -8 -269 0 -220
2 -259 16 -272 14 -14 73 -16 499 -16 426 0 485 2 499 16 14 13 16 52 16 268
0 202 -3 256 -14 272 -17 22 9 22 -590 17z m524 -288 l0 -215 -437 2 -438 3
-3 213 -2 212 440 0 440 0 0 -215z"/>
<path d="M1407 1863 c-4 -3 -7 -125 -7 -269 0 -225 2 -265 16 -278 14 -14 72
-16 497 -16 286 0 488 4 497 10 13 8 15 49 15 267 0 142 -3 266 -7 276 -7 16
-41 17 -506 17 -274 0 -502 -3 -505 -7z m943 -268 l0 -215 -440 0 -440 0 0
208 c0 115 3 212 7 215 3 4 201 7 440 7 l433 0 0 -215z"/>
<path d="M1128 1219 c-16 -9 -18 -33 -18 -279 0 -256 1 -270 19 -280 13 -6
186 -10 495 -10 418 0 476 2 490 16 14 13 16 52 16 272 0 144 -4 264 -10 272
-8 13 -76 15 -492 17 -319 2 -489 -1 -500 -8z m930 -281 l-3 -213 -437 -3
-438 -2 0 215 0 215 440 0 440 0 -2 -212z"/>
<path d="M2233 1220 l-23 -9 0 -270 c0 -257 1 -271 19 -281 27 -14 955 -14
982 0 18 10 19 24 19 281 l0 269 -26 10 c-32 13 -940 12 -971 0z m927 -285 l0
-215 -440 0 -440 0 0 215 0 215 440 0 440 0 0 -215z"/>
<path d="M1428 570 l-23 -6 -3 -269 c-2 -245 -1 -271 15 -282 26 -20 962 -18
989 1 18 14 19 29 19 275 0 160 -4 264 -10 270 -11 10 -946 20 -987 11z m922
-285 l0 -215 -437 2 -438 3 -3 213 -2 212 440 0 440 0 0 -215z"/>
<path d="M2506 554 c-3 -9 -6 -130 -6 -269 0 -217 2 -256 16 -269 14 -14 73
-16 499 -16 426 0 485 2 499 16 14 13 16 52 16 269 0 139 -3 260 -6 269 -5 14
-60 16 -509 16 -449 0 -504 -2 -509 -16z m942 -267 l2 -217 -437 2 -438 3 -3
205 c-1 112 0 210 3 217 3 11 92 13 437 11 l433 -3 3 -218z"/>
</g>
</svg>
