<?xml version="1.0" standalone="no"?>
<!DOCTYPE svg PUBLIC "-//W3C//DTD SVG 20010904//EN"
 "http://www.w3.org/TR/2001/REC-SVG-20010904/DTD/svg10.dtd">
<svg version="1.0" xmlns="http://www.w3.org/2000/svg"
 width="40px" height="38px" viewBox="0 0 421.000000 403.000000"
 preserveAspectRatio="xMidYMid meet">

<g transform="translate(0.000000,403.000000) scale(0.100000,-0.100000)"
fill="#666666" stroke="none">
<path d="M958 4018 c-20 -7 -30 -20 -38 -46 -14 -52 -14 -3210 1 -3249 5 -15
16 -31 22 -35 7 -4 185 -8 395 -8 234 0 382 -4 380 -9 -1 -5 -129 -131 -284
-280 -163 -156 -286 -282 -294 -300 -11 -28 -10 -34 5 -51 10 -11 34 -25 54
-31 24 -7 509 -9 1503 -7 1393 3 1468 4 1485 21 17 17 18 90 21 1446 l2 1428
-21 26 c-40 52 -67 40 -202 -88 l-122 -115 -5 231 c-5 228 -5 231 -29 250 -22
18 -44 19 -422 19 l-399 0 0 383 c0 210 -4 387 -8 394 -4 6 -20 17 -35 22 -38
15 -1970 14 -2009 -1z m1922 -1167 c0 -675 -4 -1048 -10 -1067 -11 -31 -251
-265 -297 -289 -24 -13 -118 -15 -589 -15 -309 0 -576 -3 -593 -6 -17 -4 -37
-16 -44 -28 -8 -15 -13 -111 -15 -328 l-3 -308 -135 0 -134 0 0 1540 0 1540
910 0 910 0 0 -1039z m837 4 c2 -228 2 -230 -23 -283 -17 -34 -47 -70 -87
-105 -33 -28 -179 -164 -324 -300 l-263 -248 0 585 0 586 348 -2 347 -3 2
-230z m353 -1435 c0 -1007 -3 -1272 -12 -1275 -7 -3 -610 -4 -1340 -3 l-1328
3 242 230 c133 127 250 236 261 244 17 12 22 10 51 -18 17 -17 36 -31 41 -31
5 0 29 19 52 42 l43 42 -41 42 -40 41 160 146 c88 81 164 147 169 147 4 0 19
-11 32 -25 13 -14 28 -25 34 -25 6 0 30 19 54 41 39 37 52 58 35 59 -5 1 -23
13 -41 29 l-33 28 153 139 c205 187 180 172 225 131 l38 -35 48 42 48 42 -41
46 -41 47 156 143 c86 79 161 145 166 147 6 2 28 -13 48 -33 l38 -37 47 52 47
52 -41 36 -42 36 149 135 c200 182 175 168 223 129 l40 -33 45 44 45 44 -40
41 -41 42 188 171 c103 95 191 172 196 172 4 0 7 -572 7 -1270z m-2182 -87 c4
-10 7 -124 7 -254 0 -185 -3 -239 -14 -252 -12 -15 -40 -17 -212 -17 l-199 0
0 263 c0 145 3 267 7 270 3 4 96 7 205 7 180 0 199 -2 206 -17z m512 4 c0 -5
-351 -332 -361 -335 -5 -2 -9 66 -9 167 l0 171 185 0 c102 0 185 -1 185 -3z"/>
<path d="M1230 3747 l-25 -13 -3 -224 c-1 -124 0 -235 3 -247 8 -34 67 -45
226 -41 195 4 184 -12 183 260 0 117 -4 223 -8 236 -4 13 -19 27 -33 33 -38
14 -313 11 -343 -4z m240 -257 l0 -130 -65 0 -65 0 0 130 0 130 65 0 65 0 0
-130z"/>
<path d="M1805 3753 c-42 -10 -45 -26 -45 -263 0 -288 -18 -265 206 -265 222
0 208 -16 212 239 4 228 -3 269 -50 285 -30 11 -282 14 -323 4z m225 -263 l0
-130 -65 0 -65 0 0 130 0 130 65 0 65 0 0 -130z"/>
<path d="M2355 3748 c-11 -6 -23 -16 -27 -22 -4 -6 -8 -113 -8 -237 0 -284
-14 -263 183 -268 166 -4 213 6 224 47 5 15 8 122 8 239 0 190 -2 214 -18 230
-15 16 -40 18 -180 21 -110 1 -168 -2 -182 -10z m243 -255 l-3 -128 -67 -3
-68 -3 0 131 0 130 70 0 71 0 -3 -127z"/>
<path d="M2435 2952 c-121 -4 -115 8 -115 -262 0 -180 3 -230 14 -246 13 -18
28 -19 190 -19 155 0 177 2 193 18 16 16 18 40 18 242 0 274 6 261 -130 267
-49 1 -126 2 -170 0z m155 -267 l0 -135 -65 0 -65 0 0 135 0 135 65 0 65 0 0
-135z"/>
<path d="M1217 2932 c-15 -16 -17 -49 -17 -249 0 -202 2 -232 17 -244 12 -11
57 -14 190 -14 157 0 176 2 188 18 32 45 30 453 -2 490 -14 15 -37 17 -188 17
-154 0 -174 -2 -188 -18z m253 -247 l0 -135 -65 0 -65 0 0 135 0 135 65 0 65
0 0 -135z"/>
<path d="M1777 2932 c-15 -16 -17 -48 -17 -243 0 -179 3 -229 14 -245 13 -17
30 -19 183 -22 156 -3 171 -2 194 16 l24 20 0 225 c0 207 -2 227 -19 246 -18
20 -29 21 -191 21 -154 0 -174 -2 -188 -18z m253 -247 l0 -135 -65 0 -65 0 0
135 0 135 65 0 65 0 0 -135z"/>
<path d="M1240 2143 c-37 -13 -40 -32 -40 -264 0 -251 0 -253 64 -264 18 -4
94 -5 169 -3 191 4 179 -13 179 261 0 119 -3 224 -6 235 -11 34 -50 42 -204
41 -81 0 -154 -3 -162 -6z m230 -263 l0 -130 -65 0 -65 0 0 130 0 130 65 0 65
0 0 -130z"/>
<path d="M1805 2143 c-42 -10 -45 -26 -45 -263 0 -288 -18 -265 206 -265 222
0 208 -16 212 238 4 228 -3 270 -50 286 -30 11 -282 14 -323 4z m225 -263 l0
-130 -65 0 -65 0 0 130 0 130 65 0 65 0 0 -130z"/>
<path d="M2360 2139 c-13 -6 -28 -15 -32 -22 -4 -7 -8 -114 -8 -238 0 -287
-18 -264 206 -264 223 0 208 -17 212 243 4 220 -4 267 -44 282 -33 13 -302 12
-334 -1z m230 -254 l0 -135 -65 0 -65 0 0 135 0 135 65 0 65 0 0 -135z"/>
<path d="M3176 2928 c-23 -33 -23 -425 -1 -468 l16 -30 167 0 c92 0 177 3 190
6 l22 6 0 238 c0 204 -2 241 -16 254 -13 13 -45 16 -189 16 -168 0 -174 -1
-189 -22z m259 -243 l0 -130 -67 -3 -68 -3 0 136 0 136 68 -3 67 -3 0 -130z"/>
<path d="M3745 1928 c-32 -25 -1385 -1315 -1498 -1428 -73 -74 -83 -104 -47
-140 20 -20 33 -20 814 -20 767 0 795 1 817 19 l24 19 0 766 c0 834 3 787 -55
801 -19 4 -34 -1 -55 -17z m-38 -1455 c-2 -2 -291 -2 -642 -1 l-638 3 639 607
639 607 3 -606 c1 -333 1 -608 -1 -610z"/>
<path d="M259 3676 c-105 -28 -190 -104 -231 -205 l-23 -56 0 -1245 0 -1245
63 -123 c128 -250 215 -408 240 -435 53 -56 85 -30 183 153 39 74 103 198 141
274 l68 139 -2 1251 -3 1251 -22 47 c-73 157 -248 239 -414 194z m164 -132
c56 -19 123 -88 132 -136 3 -18 5 -80 3 -138 l-3 -105 -201 -3 -201 -2 -7 82
c-13 183 23 261 140 303 51 19 81 18 137 -1z m-145 -1526 l-3 -1003 -62 -3
-63 -3 0 1006 0 1005 65 0 65 0 -2 -1002z m282 2 l0 -1000 -65 0 -65 0 0 1000
0 1000 65 0 65 0 0 -1000z m-52 -1162 c-6 -26 -150 -298 -156 -298 -4 0 -42
70 -85 155 l-77 155 161 0 c123 0 160 -3 157 -12z"/>
<path d="M290 140 l0 -60 65 0 65 0 0 60 0 60 -65 0 -65 0 0 -60z"/>
<path d="M567 193 c-4 -3 -7 -30 -7 -60 l0 -53 70 0 70 0 0 60 0 60 -63 0
c-35 0 -67 -3 -70 -7z"/>
<path d="M850 140 l0 -60 65 0 65 0 0 60 0 60 -65 0 -65 0 0 -60z"/>
</g>
</svg>
