<?xml version="1.0" standalone="no"?>
<!DOCTYPE svg PUBLIC "-//W3C//DTD SVG 20010904//EN"
 "http://www.w3.org/TR/2001/REC-SVG-20010904/DTD/svg10.dtd">
<svg version="1.0" xmlns="http://www.w3.org/2000/svg"
 width="38px" height="38px" viewBox="0 0 308.000000 308.000000"
 preserveAspectRatio="xMidYMid meet">

<g transform="translate(0.000000,308.000000) scale(0.100000,-0.100000)"
fill="#666666" stroke="none">
<path d="M1080 2486 l0 -595 -292 -3 -293 -3 -65 -31 c-36 -17 -94 -55 -130
-85 -36 -30 -115 -90 -175 -133 -61 -44 -114 -82 -118 -86 -6 -6 320 -257 433
-333 22 -15 61 -17 332 -17 l308 0 0 -589 c0 -485 2 -591 14 -600 9 -8 135
-10 447 -9 l434 3 5 595 5 595 420 5 c405 5 422 6 467 27 66 30 143 105 175
172 24 48 28 68 28 141 -1 72 -5 95 -29 148 -36 77 -104 142 -184 174 -56 22
-67 23 -469 26 l-413 3 0 595 0 594 -450 0 -450 0 0 -594z m798 397 l-3 -98
-67 -3 -68 -3 0 -44 0 -45 70 0 70 0 0 -100 0 -100 -120 0 -120 0 0 -50 0 -50
120 0 120 0 0 -100 0 -100 -70 0 -70 0 0 -50 0 -50 70 0 70 0 0 -100 0 -100
-350 0 -350 0 0 545 0 545 350 0 351 0 -3 -97z m502 -1193 l0 -100 -900 0
-900 0 0 100 0 100 900 0 900 0 0 -100z m200 -145 l0 -245 -50 0 -50 0 0 245
0 245 50 0 50 0 0 -245z m231 233 c54 -16 115 -71 145 -131 22 -43 25 -61 22
-117 -5 -89 -42 -152 -116 -196 -51 -31 -149 -53 -172 -39 -6 4 -10 96 -10
251 l0 244 46 0 c26 0 64 -5 85 -12z m-2333 -348 l-3 -121 -152 113 c-84 62
-152 116 -153 120 0 4 69 59 153 122 l152 115 3 -114 c1 -63 1 -168 0 -235z
m1902 -35 l0 -95 -900 0 -900 0 0 95 0 95 900 0 900 0 0 -95z m-500 -300 l0
-95 -70 0 -70 0 0 -50 0 -50 70 0 70 0 0 -100 0 -100 -120 0 -120 0 0 -50 0
-50 120 0 120 0 0 -100 0 -100 -70 0 -70 0 0 -50 0 -50 70 0 70 0 0 -100 0
-100 -347 2 -348 3 -3 543 -2 542 350 0 350 0 0 -95z"/>
</g>
</svg>
