<?xml version="1.0" encoding="iso-8859-1"?>
<!DOCTYPE svg PUBLIC "-//W3C//DTD SVG 1.1//EN" "http://www.w3.org/Graphics/SVG/1.1/DTD/svg11.dtd">
<svg version="1.1" id="Capa_1" xmlns="http://www.w3.org/2000/svg" xmlns:xlink="http://www.w3.org/1999/xlink" x="0px" y="0px"
	 width="13px" height="13px" viewBox="0 0 612 612" style="enable-background:new 0 0 612 612;" xml:space="preserve" fill="#051e61">
<g>
	<g>
		<path d="M565.154,96.255c-52.934-44.81-144.817-69.49-259.697-69.49c-116.609,0-205.266,24.03-258.899,69.49
			C21.684,117.309,0,141.613,0,176.548v28.11c0,27.03,18.495,46.758,44.824,46.758h77.858c4.938,0,9.704-0.028,14.197-1.418
			c-0.014,0.019,0.459,0.394,0.45,0.413C55.108,365.447,13.909,449.394,13.909,499.202v38.319c0,27.471,21.369,47.713,48.844,47.713
			h486.465c27.48,0,48.872-20.242,48.872-47.713v-42.154c0-49.882-64.724-154.571-121.533-240.209l-1.706-2.935
			c-0.348-0.524-0.645-1.71-1.011-2.221c4.483,1.382,9.365,1.41,14.299,1.41h77.812c26.562,0,46.049-20.178,46.049-46.758v-28.11
			C612,149.495,597.841,123.986,565.154,96.255z M375.531,161.791c-16.793,0-37.077,6.885-37.077,39.697v26.751h-64.909v-26.751
			c0-32.807-20.279-39.697-37.068-39.697c-16.811,0-37.114,6.885-37.114,39.697v26.751h-21.967c-5.313,0-10.497,1.767-15.43,3.38
			c5.573-7.863,8.883-17.02,8.883-27.373c0-19.458,1.391-37.169,18.499-59.429c15.286-19.881,62.16-33.136,116.642-33.136
			c55.298,0,99.584,12.973,115.576,33.771c16.992,22.125,18.373,39.91,18.373,59.188c0,10.321,3.288,19.042,8.833,26.896
			c-4.854-1.553-9.954-3.292-15.208-3.292h-20.928v-26.752C412.637,168.676,392.338,161.791,375.531,161.791z M579.545,495.367
			v42.154c0,17.247-13.074,29.167-30.326,29.167H62.753c-17.248,0-30.299-11.92-30.299-29.167v-38.319
			c0-31.532,20.405-99.2,119.961-238.49c5.851-8.197,14.882-13.932,24.98-13.932h32.937c5.118,0,7.58-2.467,7.58-7.59v-37.708
			c0-15.81,4.887-21.151,18.569-21.151c13.816,0,18.522,5.137,18.522,21.151v37.708c0,5.119,5.313,7.59,10.432,7.59h81.1
			c5.118,0,10.469-2.467,10.469-7.59v-37.708c0-15.81,4.877-21.151,18.531-21.151c13.678,0,18.56,5.336,18.56,21.151v37.708
			c0,5.119,2.42,7.59,7.543,7.59h31.931c10.521,0,20.261,6.078,26.065,14.846l1.475,3.366
			C490.518,309.329,579.545,444.683,579.545,495.367z M593.454,204.658c0,16.353-11.164,28.212-27.503,28.212H488.14
			c-16.353,0-29.654-12.583-29.654-28.936c0-21.888-1.697-43.382-22.213-70.097c-19.723-25.653-68.424-40.786-130.282-40.786
			c-48.45,0-108.398,10.724-131.348,40.578c-20.613,26.826-22.338,49.076-22.338,70.259c0,16.353-13.288,28.982-29.622,28.982
			H44.824c-15.93,0-26.279-11.582-26.279-28.212v-28.11c0-25.852,15.458-45.135,40.267-66.142
			c50.239-42.585,135.548-65.095,247.711-65.095c108.89,0,198.043,23.729,246.91,65.095c28.212,23.928,40.021,44.945,40.021,66.142
			V204.658z"/>
		<path d="M324.546,418.325h-37.091c-5.119,0-9.273,4.154-9.273,9.272c0,5.119,4.154,9.273,9.273,9.273h37.091
			c5.118,0,9.272-4.154,9.272-9.273C333.818,422.479,329.664,418.325,324.546,418.325z"/>
		<path d="M255,307.053h-37.091c-5.119,0-9.273,4.154-9.273,9.272s4.154,9.272,9.273,9.272H255c5.119,0,9.272-4.154,9.272-9.272
			S260.119,307.053,255,307.053z"/>
		<path d="M324.546,455.416h-37.091c-5.119,0-9.273,4.154-9.273,9.272c0,5.119,4.154,9.273,9.273,9.273h37.091
			c5.118,0,9.272-4.154,9.272-9.273C333.818,459.57,329.664,455.416,324.546,455.416z"/>
		<path d="M255,344.144h-37.091c-5.119,0-9.273,4.154-9.273,9.272s4.154,9.272,9.273,9.272H255c5.119,0,9.272-4.154,9.272-9.272
			S260.119,344.144,255,344.144z"/>
		<path d="M255,455.416h-37.091c-5.119,0-9.273,4.154-9.273,9.272c0,5.119,4.154,9.273,9.273,9.273H255
			c5.119,0,9.272-4.154,9.272-9.273C264.272,459.57,260.119,455.416,255,455.416z"/>
		<path d="M255,381.234h-37.091c-5.119,0-9.273,4.154-9.273,9.272c0,5.119,4.154,9.272,9.273,9.272H255
			c5.119,0,9.272-4.153,9.272-9.272C264.272,385.389,260.119,381.234,255,381.234z"/>
		<path d="M255,418.325h-37.091c-5.119,0-9.273,4.154-9.273,9.272c0,5.119,4.154,9.273,9.273,9.273H255
			c5.119,0,9.272-4.154,9.272-9.273C264.272,422.479,260.119,418.325,255,418.325z"/>
		<path d="M394.091,418.325H357c-5.118,0-9.272,4.154-9.272,9.272c0,5.119,4.154,9.273,9.272,9.273h37.091
			c5.118,0,9.272-4.154,9.272-9.273C403.363,422.479,399.209,418.325,394.091,418.325z"/>
		<path d="M394.091,381.234H357c-5.118,0-9.272,4.154-9.272,9.272c0,5.119,4.154,9.272,9.272,9.272h37.091
			c5.118,0,9.272-4.153,9.272-9.272C403.363,385.389,399.209,381.234,394.091,381.234z"/>
		<path d="M324.546,381.234h-37.091c-5.119,0-9.273,4.154-9.273,9.272c0,5.119,4.154,9.272,9.273,9.272h37.091
			c5.118,0,9.272-4.153,9.272-9.272C333.818,385.389,329.664,381.234,324.546,381.234z"/>
		<path d="M394.091,307.053H357c-5.118,0-9.272,4.154-9.272,9.272s4.154,9.272,9.272,9.272h37.091c5.118,0,9.272-4.154,9.272-9.272
			S399.209,307.053,394.091,307.053z"/>
		<path d="M394.091,344.144H357c-5.118,0-9.272,4.154-9.272,9.272s4.154,9.272,9.272,9.272h37.091c5.118,0,9.272-4.154,9.272-9.272
			S399.209,344.144,394.091,344.144z"/>
		<path d="M324.546,344.144h-37.091c-5.119,0-9.273,4.154-9.273,9.272s4.154,9.272,9.273,9.272h37.091
			c5.118,0,9.272-4.154,9.272-9.272S329.664,344.144,324.546,344.144z"/>
		<path d="M394.091,455.416H357c-5.118,0-9.272,4.154-9.272,9.272c0,5.119,4.154,9.273,9.272,9.273h37.091
			c5.118,0,9.272-4.154,9.272-9.273C403.363,459.57,399.209,455.416,394.091,455.416z"/>
		<path d="M324.546,307.053h-37.091c-5.119,0-9.273,4.154-9.273,9.272s4.154,9.272,9.273,9.272h37.091
			c5.118,0,9.272-4.154,9.272-9.272S329.664,307.053,324.546,307.053z"/>
	</g>
</g>
<g>
</g>
<g>
</g>
<g>
</g>
<g>
</g>
<g>
</g>
<g>
</g>
<g>
</g>
<g>
</g>
<g>
</g>
<g>
</g>
<g>
</g>
<g>
</g>
<g>
</g>
<g>
</g>
<g>
</g>
</svg>
