<?xml version="1.0" standalone="no"?>
<!DOCTYPE svg PUBLIC "-//W3C//DTD SVG 20010904//EN"
 "http://www.w3.org/TR/2001/REC-SVG-20010904/DTD/svg10.dtd">
<svg version="1.0" xmlns="http://www.w3.org/2000/svg"
 width="25x" height="38px" viewBox="0 0 205.000000 308.000000"
 preserveAspectRatio="xMidYMid meet">

<g transform="translate(0.000000,308.000000) scale(0.100000,-0.100000)"
fill="#666666" stroke="none">
<path d="M973 3061 c-10 -16 -27 -19 -134 -22 l-121 -4 -42 -47 c-23 -25 -67
-61 -97 -79 -231 -140 -352 -312 -395 -562 -22 -129 -46 -167 -103 -167 -20 0
-21 -5 -21 -120 l0 -120 25 0 24 0 -24 -46 c-31 -59 -33 -122 -4 -181 24 -51
60 -78 130 -101 l52 -17 71 -140 c97 -192 141 -253 269 -378 92 -90 109 -112
100 -125 -5 -10 -133 -73 -284 -142 -249 -115 -279 -131 -329 -180 -34 -34
-61 -71 -69 -95 -8 -26 -15 -124 -18 -287 l-6 -248 1027 0 1028 0 -4 248 -3
247 -28 57 c-42 86 -92 123 -278 207 -331 149 -399 183 -399 200 0 9 41 54 91
100 122 113 190 206 280 385 l75 151 52 17 c72 23 106 50 131 103 28 60 27
121 -4 179 l-24 46 24 0 25 0 0 109 c0 120 -1 122 -66 144 l-39 14 -11 89 c-6
49 -17 109 -24 134 -49 181 -177 349 -341 450 -40 25 -94 66 -119 92 -55 58
-86 68 -212 68 -91 0 -98 1 -98 20 0 17 -7 20 -48 20 -35 0 -50 -5 -59 -19z
m7 -401 l0 -280 50 0 50 0 0 280 0 280 99 0 c78 0 101 -3 112 -16 9 -12 14
-67 17 -200 l4 -184 44 0 44 0 0 145 c0 80 2 145 5 145 16 0 70 -35 125 -81
75 -62 142 -151 185 -244 42 -92 56 -149 64 -268 l6 -99 50 -16 c45 -15 50
-20 53 -49 l3 -33 -865 0 -866 0 0 30 c0 31 22 50 59 50 37 0 48 24 54 122 7
116 27 193 73 284 44 88 110 168 192 234 110 87 102 93 102 -75 l0 -145 50 0
50 0 0 181 c0 105 4 188 10 200 10 17 22 19 120 19 l110 0 0 -280z m766 -789
c-9 -106 -51 -233 -122 -378 -227 -462 -562 -628 -861 -425 -81 55 -197 182
-261 285 -105 168 -183 375 -199 527 l-6 60 728 0 728 0 -7 -69z m-691 -978
c50 3 109 12 133 21 l42 15 0 -34 c0 -47 -16 -85 -53 -123 -71 -73 -232 -69
-304 9 -27 29 -53 90 -53 122 l0 23 73 -18 c54 -15 94 -18 162 -15z m-224
-206 c25 -22 66 -44 98 -54 70 -20 179 -14 243 14 56 25 118 87 143 142 10 23
21 41 25 41 4 0 122 -52 261 -115 275 -125 316 -153 338 -231 6 -22 11 -117
11 -211 l0 -173 -119 0 -118 0 -6 30 c-6 28 -10 30 -50 30 -41 0 -45 -2 -50
-30 l-6 -30 -575 0 -575 0 -3 28 c-3 25 -7 27 -49 30 -44 3 -47 2 -52 -28 l-6
-30 -122 0 -122 0 7 197 c7 185 9 201 32 240 27 47 17 41 368 203 l210 97 36
-56 c20 -31 57 -74 81 -94z"/>
<path d="M470 2175 l0 -45 555 0 555 0 0 45 0 45 -555 0 -555 0 0 -45z"/>
</g>
</svg>
